<svg width="159" height="41" viewBox="0 0 159 41" fill="none" xmlns="http://www.w3.org/2000/svg">
<path d="M10.1122 8.48075V17.9138C12.8015 13.9456 15.4909 9.80501 18.797 6.27667C20.3843 4.55785 21.0464 4.42633 23.382 4.42633H27.5272V4.64855C25.1916 7.0295 19.1961 14.2132 16.153 18.5352C18.9739 22.6349 21.7086 27.2199 25.5408 30.4807C26.4206 31.1882 27.0419 31.4966 27.9217 31.7143C27.3911 33.873 26.4659 34.7573 24.0442 34.7573C22.5884 34.7573 20.8696 34.009 19.8129 32.8163C16.1122 28.5397 13.1145 24.1769 10.1167 19.3696V34.6213H8.13488C5.22332 34.6213 4.16663 32.5941 4.16663 30.5215V4.42633H6.10767C9.01923 4.42633 10.1213 6.36737 10.1213 8.48075H10.1122Z" fill="#1C75BC"/>
<path d="M38.4115 35.016H37.2233C31.5816 35.016 27.704 31.8414 27.704 27.4786C27.704 23.1157 30.7879 20.0273 39.5181 20.0273H41.5907V19.7189C41.5907 16.3674 40.0034 15.3561 36.4795 15.3561C32.2029 15.3561 29.8219 16.9887 28.9421 18.0908H28.7199V16.1951C28.7199 13.5511 31.1008 10.3765 37.3594 10.3765C42.6474 10.3765 47.4093 12.8436 47.4093 21.0432V26.508C47.4093 31.533 43.7086 35.016 38.416 35.016H38.4115ZM41.6315 24.2586H39.5136C35.0192 24.2586 33.7403 25.3153 33.7403 27.2563C33.7403 29.1974 35.2369 30.2087 37.8401 30.2087C40.4433 30.2087 41.6315 28.9752 41.6315 26.5489V24.2586Z" fill="#1C75BC"/>
<path d="M59.4866 35.016H58.2984C52.6566 35.016 48.7791 31.8414 48.7791 27.4786C48.7791 23.1157 51.863 20.0273 60.5932 20.0273H62.6657V19.7189C62.6657 16.3674 61.0784 15.3561 57.5546 15.3561C53.2779 15.3561 50.897 16.9887 50.0172 18.0908H49.7949V16.1951C49.7949 13.5511 52.1759 10.3765 58.4344 10.3765C63.7224 10.3765 68.4844 12.8436 68.4844 21.0432V26.508C68.4844 31.533 64.7791 35.016 59.4911 35.016H59.4866ZM62.702 24.2586H60.5841C56.0897 24.2586 54.8108 25.3153 54.8108 27.2563C54.8108 29.1974 56.3074 30.2087 58.9106 30.2087C61.5138 30.2087 62.702 28.9752 62.702 26.5489V24.2586Z" fill="#1C75BC"/>
<path d="M78.0851 35.1474C73.7223 35.1474 70.457 32.898 70.457 30.4762V27.7869H70.6792C71.9581 28.9751 75.0012 30.0363 77.8221 30.0363C80.643 30.0363 82.1441 29.1973 82.1441 27.4331C82.1441 26.068 81.3051 25.4059 77.2053 24.8345C72.1804 24.1315 69.754 22.1451 69.754 18.5306C69.754 14.0771 73.7677 10.2857 79.8493 10.2857C85.2281 10.2857 87.4322 13.0612 87.4322 15.356V17.6054H87.2099C85.9764 16.3719 83.2417 15.4014 80.4208 15.4014C76.8062 15.4014 75.6588 16.5034 75.6588 18.0454C75.6588 19.2336 76.3663 19.7188 80.4208 20.381C85.3596 21.1746 88.0036 23.3333 88.0036 27.1247C88.0036 32.1497 84.4752 35.1474 78.0851 35.1474Z" fill="#1C75BC"/>
<path d="M99.994 35.016H98.8058C93.1641 35.016 89.282 31.8414 89.282 27.4786C89.282 23.1157 92.3659 20.0273 101.096 20.0273H103.169V19.7189C103.169 16.3674 101.581 15.3561 98.0529 15.3561C93.7763 15.3561 91.3954 16.9887 90.5155 18.0908H90.2933V16.1951C90.2933 13.5511 92.6743 10.3765 98.9327 10.3765C104.221 10.3765 108.983 12.8436 108.983 21.0432V26.508C108.983 31.533 105.282 35.016 99.9894 35.016H99.994ZM103.214 24.2586H101.096C96.6017 24.2586 95.3228 25.3153 95.3228 27.2563C95.3228 29.1974 96.8194 30.2087 99.4225 30.2087C102.026 30.2087 103.214 28.9752 103.214 26.5489V24.2586Z" fill="#1C75BC"/>
<path d="M130.766 34.6213C128.122 34.6213 126.444 32.9479 126.444 30.7438V21.3107C126.444 17.2971 124.68 15.5374 121.641 15.5374C119.083 15.5374 117.319 17.4785 117.319 20.8708V34.6259H115.555C113.042 34.6259 111.41 32.9524 111.41 30.7483V20.4762C111.41 15.4513 114.716 10.2948 122.122 10.2948C127.718 10.2948 132.348 14.0408 132.348 20.7846V34.6259H130.761L130.766 34.6213Z" fill="#1C75BC"/>
<path d="M145.487 35.016H144.299C138.657 35.016 134.775 31.8414 134.775 27.4786C134.775 23.1157 137.859 20.0273 146.589 20.0273H148.661V19.7189C148.661 16.3674 147.074 15.3561 143.546 15.3561C139.269 15.3561 136.888 16.9887 136.008 18.0908H135.786V16.1951C135.786 13.5511 138.167 10.3765 144.426 10.3765C149.714 10.3765 154.476 12.8436 154.476 21.0432V26.508C154.476 31.533 150.775 35.016 145.482 35.016H145.487ZM148.707 24.2586H146.589C142.095 24.2586 140.816 25.3153 140.816 27.2563C140.816 29.1974 142.312 30.2087 144.915 30.2087C147.519 30.2087 148.707 28.9752 148.707 26.5489V24.2586Z" fill="#1C75BC"/>
</svg>
